<?xml version="1.0" standalone="no"?>
<!DOCTYPE svg PUBLIC "-//W3C//DTD SVG 20010904//EN"
 "http://www.w3.org/TR/2001/REC-SVG-20010904/DTD/svg10.dtd">
<svg version="1.0" xmlns="http://www.w3.org/2000/svg"
 width="530.000000pt" height="530.000000pt" viewBox="0 0 530.000000 530.000000"
 preserveAspectRatio="xMidYMid meet">

<g transform="translate(0.000000,530.000000) scale(0.100000,-0.100000)"
fill="#000000" stroke="none">
<path d="M2450 5258 c-44 -143 -78 -232 -125 -326 -76 -151 -101 -188 -360
-537 -75 -100 -296 -429 -334 -497 -36 -65 -48 -75 -64 -59 -6 6 -25 11 -43
11 -37 0 -85 -46 -206 -196 -269 -335 -448 -742 -508 -1154 -57 -394 -55 -479
17 -788 46 -202 153 -425 292 -612 101 -136 315 -344 436 -425 51 -34 60 -37
242 -96 135 -43 381 -79 538 -79 359 0 749 121 1080 335 184 118 420 314 485
400 38 51 74 73 45 28 -81 -125 -309 -362 -465 -484 -114 -89 -317 -204 -475
-270 -71 -29 -207 -68 -350 -98 -96 -21 -281 -41 -375 -41 -104 0 -302 22
-363 40 -22 6 -42 8 -45 5 -13 -13 35 -41 109 -64 41 -13 82 -27 91 -32 10 -5
27 -9 38 -9 11 0 28 -4 38 -9 9 -5 44 -15 77 -21 33 -6 80 -16 105 -22 73 -16
413 -22 525 -9 415 49 829 240 1114 516 319 307 494 695 541 1195 12 127 30
239 62 370 14 59 66 220 78 242 6 10 10 25 10 33 0 8 5 15 10 15 6 0 10 7 10
15 0 8 11 34 24 57 61 113 90 165 100 183 40 71 144 212 218 295 62 70 68 81
39 73 -10 -3 -22 0 -25 6 -9 14 -95 14 -172 1 -86 -16 -204 -41 -239 -51 -16
-5 -64 -18 -105 -30 -41 -12 -79 -26 -84 -31 -19 -16 -36 -8 -42 20 -42 182
-175 467 -305 657 -126 183 -307 365 -363 365 -31 0 -40 9 -115 125 -75 115
-180 235 -283 324 -76 67 -84 71 -129 71 -54 0 -44 -14 -119 160 -18 41 -73
157 -123 258 l-91 182 -201 0 -202 0 -13 -42z"/>
<path d="M817 3262 c-30 -32 -134 -265 -175 -387 -37 -112 -48 -151 -71 -257
-83 -370 -63 -802 51 -1133 19 -54 32 -85 86 -205 9 -19 40 -80 70 -135 268
-491 687 -850 1182 -1014 146 -48 147 -48 285 -77 115 -24 159 -28 374 -32
277 -5 359 2 571 50 222 50 495 171 690 306 138 95 181 131 321 266 250 242
434 541 519 846 7 25 16 56 20 70 5 14 11 48 15 75 9 69 -7 49 -40 -50 -62
-186 -203 -429 -350 -604 -316 -376 -789 -658 -1295 -772 -269 -61 -536 -64
-810 -10 -547 108 -1132 571 -1400 1108 -53 107 -123 311 -168 493 -28 109
-35 143 -62 300 -15 84 -16 417 -1 500 23 130 38 197 71 315 21 74 47 143 105
270 25 56 38 95 32 95 -2 0 -11 -8 -20 -18z"/>
</g>
</svg>
